<svg xmlns="http://www.w3.org/2000/svg" viewBox="0 0 128 128">
  <path fill="#FCB400" d="M58.8 5.6L7.2 27.2c-4 1.6-4 7.2 0 8.8l51.6 21.6c2.8 1.2 6 1.2 8.8 0L119.2 36c4-1.6 4-7.2 0-8.8L67.6 5.6c-2.8-1.2-6-1.2-8.8 0z"/>
  <path fill="#18BFFF" d="M68 67.2V120c0 3.2 3.2 5.6 6.4 4.4l50.4-20c2-1.2 3.2-3.2 3.2-5.2V46.4c0-3.2-3.2-5.6-6.4-4.4l-50.4 20c-2 .8-3.2 2.8-3.2 5.2z"/>
  <path fill="#F82B60" d="M56 67.2V120c0 3.2-3.2 5.6-6.4 4.4L3.2 104.4c-2-1.2-3.2-3.2-3.2-5.2V46.4c0-3.2 3.2-5.6 6.4-4.4l46.4 20c2 .8 3.2 2.8 3.2 5.2z"/>
</svg>
