<svg xmlns="http://www.w3.org/2000/svg" viewBox="0 0 128 128">
  <path fill="#0ACF83" d="M45.5 128c14.1 0 25.5-11.4 25.5-25.5V77H45.5C31.4 77 20 88.4 20 102.5S31.4 128 45.5 128z"/>
  <path fill="#A259FF" d="M20 64c0-14.1 11.4-25.5 25.5-25.5H71V90H45.5C31.4 90 20 78.1 20 64z"/>
  <path fill="#F24E1E" d="M20 25.5C20 11.4 31.4 0 45.5 0H71v51H45.5C31.4 51 20 39.6 20 25.5z"/>
  <path fill="#FF7262" d="M71 0h25.5C110.6 0 122 11.4 122 25.5S110.6 51 96.5 51H71V0z"/>
  <path fill="#1ABCFE" d="M122 64c0 14.1-11.4 25.5-25.5 25.5S71 78.1 71 64s11.4-25.5 25.5-25.5S122 49.9 122 64z"/>
</svg>
