<svg xmlns="http://www.w3.org/2000/svg" viewBox="0 0 128 128">
  <path fill="#181717" d="M64 0C28.7 0 0 28.7 0 64c0 28.3 18.3 52.3 43.7 60.8 3.2.6 4.4-1.4 4.4-3.1 0-1.5-.1-6.5-.1-11.8-16 3-20.2-3.9-21.5-7.5-.7-1.8-3.8-7.5-6.5-9-2.2-1.2-5.4-4.2-.1-4.2 5 0 8.6 4.6 9.8 6.5 5.7 9.6 14.9 6.9 18.5 5.2.6-4.2 2.2-6.9 4.1-8.5-14.2-1.6-29.1-7.1-29.1-31.6 0-7 2.5-12.7 6.5-17.2-.6-1.6-2.8-8.1.6-16.9 0 0 5.3-1.7 17.4 6.6 5.1-1.4 10.5-2.1 15.8-2.1s10.8.7 15.8 2.1c12.1-8.4 17.4-6.6 17.4-6.6 3.5 8.8 1.3 15.3.6 16.9 4.1 4.5 6.5 10.2 6.5 17.2 0 24.6-15 30-29.2 31.6 2.3 2 4.3 5.8 4.3 11.8 0 8.5-.1 15.4-.1 17.5 0 1.7 1.2 3.7 4.4 3.1C109.7 116.3 128 92.2 128 64c0-35.3-28.7-64-64-64z"/>
</svg>
