<svg xmlns="http://www.w3.org/2000/svg" viewBox="0 0 128 128">
  <path fill="#FF7A59" d="M95.2 44V29.6a12 12 0 0 0 6.8-10.8c0-6.8-5.2-12-12-12s-12 5.2-12 12c0 4.8 2.8 8.8 6.8 10.8V44c-6 1.2-11.6 4-16 8l-42.4-33.2c.4-1.2.8-2.4.8-4C27.2 6.8 20.4 0 12.4 0S0 6.8 0 14.8c0 6.4 4.4 12 10.4 13.6v71.2C4.4 101.2 0 106.8 0 113.2c0 8 6.8 14.8 14.8 14.8s14.8-6.8 14.8-14.8c0-6.4-4.4-12-10.4-13.6V46.4L56 74.8c-.4 2-.8 4-.8 6 0 17.6 14.4 32 32 32 16.4 0 30-12.4 31.6-28.4h.4c6 0 10.8-4.8 10.8-10.8 0-5.2-3.6-9.6-8.4-10.4-2.4-11.6-10-21.2-20.4-25.2zM87.2 100c-10.8 0-19.2-8.8-19.2-19.2 0-10.8 8.8-19.2 19.2-19.2 10.8 0 19.2 8.8 19.2 19.2.4 10.4-8.4 19.2-19.2 19.2z"/>
</svg>
