<svg xmlns="http://www.w3.org/2000/svg" viewBox="0 0 128 128">
  <path fill="#000" d="M25.6 11.4c3.8 2.8 5.2 2.6 12.4 2l67.6-4c1.4 0 .2-1.4-.2-1.6l-11.2-8c-2.2-1.6-5-3.4-10.6-3L20.8 2c-2.4.2-2.8 1.4-1.8 2.4l6.6 7zm4 18.4v71.2c0 3.8 1.8 5.2 6 5l74.4-4.2c4.2-.2 4.6-2.8 4.6-5.8V25.6c0-3-1.2-4.6-3.8-4.4l-77.8 4.4c-2.8.2-3.4 1.6-3.4 4.2zm73.4 3.4c.4 1.8 0 3.6-1.8 3.8l-3.6.8v52.8c-3.2 1.6-6 2.6-8.4 2.6-3.8 0-4.8-1.2-7.8-5L53.6 45v40l7.4 1.6s0 3.6-5 3.6l-13.8.8c-.4-.8 0-2.8 1.4-3.2l3.6-1V37.8l-5-1c-.4-1.8 1-4.4 5.4-4.6l14.8-.8 29.4 44.8V38.6l-6.2-.8c-.4-2.2 1.2-3.8 4-4l14.8-.6z"/>
</svg>
