<svg xmlns="http://www.w3.org/2000/svg" viewBox="0 0 128 128">
  <path fill="#E01E5A" d="M27 80c0 7.7-6.3 14-14 14s-14-6.3-14-14 6.3-14 14-14h14v14zm7 0c0-7.7 6.3-14 14-14s14 6.3 14 14v35c0 7.7-6.3 14-14 14s-14-6.3-14-14V80z"/>
  <path fill="#36C5F0" d="M48 27c-7.7 0-14-6.3-14-14S40.3-1 48-1s14 6.3 14 14v14H48zm0 7c7.7 0 14 6.3 14 14s-6.3 14-14 14H13c-7.7 0-14-6.3-14-14s6.3-14 14-14h35z"/>
  <path fill="#2EB67D" d="M101 48c0-7.7 6.3-14 14-14s14 6.3 14 14-6.3 14-14 14h-14V48zm-7 0c0 7.7-6.3 14-14 14s-14-6.3-14-14V13c0-7.7 6.3-14 14-14s14 6.3 14 14v35z"/>
  <path fill="#ECB22E" d="M80 101c7.7 0 14 6.3 14 14s-6.3 14-14 14-14-6.3-14-14v-14h14zm0-7c-7.7 0-14-6.3-14-14s6.3-14 14-14h35c7.7 0 14 6.3 14 14s-6.3 14-14 14H80z"/>
</svg>
